<?xml version="1.0" encoding="UTF-8" standalone="no"?>
<!-- Created with Inkscape (http://www.inkscape.org/) -->
<svg
   xmlns:svg="http://www.w3.org/2000/svg"
   xmlns="http://www.w3.org/2000/svg"
   version="1.0"
   width="1193.3857"
   height="256.53543"
   id="svg2"
   xml:space="preserve"><defs
     id="defs5" /><g
     transform="translate(-6.7381465,-5.3309542e-2)"
     id="g2768"><path
       d="M 42.132406,221.17959 L 213.97916,221.17959 C 270.92073,221.17959 290.94414,202.45979 290.94414,156.545 L 290.94762,100.10053 C 290.94762,54.185738 270.92073,35.465938 213.97916,35.465938 L 42.132406,35.462458 L 42.132406,221.17959 L 42.132406,221.17959 z M 99.073976,81.648398 L 200.12268,81.648398 C 224.49145,81.648398 233.99561,88.566208 233.99561,114.99642 L 233.99561,140.11607 C 233.99561,166.53932 224.48797,173.46756 200.12268,173.46756 L 99.073976,173.46408 L 99.073976,81.648398 L 99.073976,81.648398 z"
       id="path2556"
       style="fill:#717d84;fill-opacity:1" /><polygon
       points="165.861,23.3445 167.499,23.3445 167.499,18.0025 165.861,18.0025 165.861,23.3445 "
       transform="matrix(34.762865,0,0,34.762865,-5423.9457,-590.34211)"
       id="polygon2558"
       style="fill:#717d84;fill-opacity:1" /><polygon
       points="168.914,23.3445 174.853,23.3445 174.853,22.0604 170.551,22.0604 170.551,21.2045 174.536,21.2045 174.536,20.098 170.551,20.098 170.551,19.2418 174.757,19.2418 174.757,18.0021 168.914,18.0021 168.914,23.3445 "
       transform="matrix(34.762865,0,0,34.762865,-5423.9457,-590.34211)"
       id="polygon2560"
       style="fill:#717d84;fill-opacity:1" /><polygon
       points="176.009,23.3445 177.647,23.3445 177.647,21.3228 181.101,21.3228 181.101,23.3445 182.738,23.3445 182.738,18.0021 181.101,18.0021 181.101,19.906 177.647,19.906 177.647,18.0021 176.009,18.0021 176.009,23.3445 "
       transform="matrix(34.762865,0,0,34.762865,-5423.9457,-590.34211)"
       id="polygon2562"
       style="fill:#717d84;fill-opacity:1" /><polygon
       points="184.212,23.3445 189.532,23.3445 189.532,21.9719 185.85,21.9719 185.85,18.0021 184.212,18.0021 184.212,23.3445 "
       transform="matrix(34.762865,0,0,34.762865,-5423.9457,-590.34211)"
       id="polygon2564"
       style="fill:#717d84;fill-opacity:1" /></g></svg>